<svg width="300" height="112" viewBox="0 0 300 112" fill="none" xmlns="http://www.w3.org/2000/svg">
<g clip-path="url(#clip0_103_45)">
<path d="M154.884 36.9357L169.157 36.0123C169.483 38.348 170.08 40.0861 171.056 41.3354C172.63 43.2908 174.801 44.2685 177.677 44.2685C179.794 44.2685 181.476 43.7797 182.616 42.7476C183.701 41.9329 184.352 40.6293 184.352 39.2713C184.352 37.9677 183.755 36.7184 182.724 35.9037C181.639 34.926 179.088 33.9483 175.072 33.0792C168.506 31.6126 163.784 29.6572 161.017 27.1586C158.249 24.823 156.675 21.401 156.784 17.7617C156.784 15.2632 157.543 12.7646 158.954 10.7005C160.582 8.36487 162.808 6.51809 165.467 5.48606C168.343 4.23677 172.359 3.58496 177.406 3.58496C183.593 3.58496 188.314 4.72562 191.57 7.06126C194.826 9.34258 196.78 13.0361 197.377 18.0876L183.267 18.9024C182.887 16.7297 182.127 15.1545 180.879 14.1225C179.631 13.0905 178.003 12.6016 175.886 12.6016C174.15 12.6016 172.847 12.9818 171.979 13.688C171.165 14.3398 170.622 15.3175 170.677 16.4038C170.677 17.2186 171.111 17.979 171.762 18.4679C172.467 19.1197 174.15 19.7172 176.809 20.2603C183.376 21.6726 188.043 23.0848 190.919 24.5514C193.795 26.018 195.857 27.8104 197.106 29.9288C198.408 32.1015 199.059 34.6001 199.005 37.153C199.005 40.1947 198.137 43.2365 196.4 45.7894C194.609 48.451 192.113 50.515 189.182 51.7643C186.089 53.1222 182.182 53.8283 177.514 53.8283C169.266 53.8283 163.567 52.2532 160.365 49.0484C157.164 45.8437 155.264 41.8243 154.884 36.9357ZM3.41896 53.0136V4.45404H28.437C33.0499 4.45404 36.6317 4.83426 39.0738 5.64901C41.4617 6.40945 43.5781 7.98465 44.9891 10.103C46.563 12.4387 47.3227 15.1545 47.2685 17.979C47.4313 22.7589 44.9891 27.3216 40.8104 29.7115C39.1823 30.6349 37.3915 31.2867 35.5463 31.6126C36.903 31.9928 38.2598 32.6447 39.4537 33.4051C40.3763 34.1655 41.136 35.0346 41.8415 35.958C42.6556 36.8814 43.3611 37.9134 43.958 38.9998L51.2301 53.0679H34.1896L26.1577 38.1307C25.1266 36.2296 24.2583 34.9803 23.4443 34.3828C22.3589 33.6224 21.0564 33.2421 19.754 33.2421H18.4515V52.9593H3.41896V53.0136ZM18.4515 24.1169H24.801C26.1577 24.0082 27.4602 23.791 28.7627 23.465C29.7395 23.3021 30.6078 22.7589 31.2048 21.9442C32.67 19.9887 32.453 17.2186 30.6621 15.5347C29.6852 14.72 27.7858 14.2854 25.0724 14.2854H18.4515V24.1169ZM0 94.6205L14.2728 93.6972C14.5984 96.0328 15.1954 97.7709 16.1722 99.0202C17.6918 100.976 19.9168 102.008 22.7931 102.008C24.9096 102.008 26.5919 101.519 27.7315 100.487C28.8169 99.6177 29.4682 98.3684 29.4682 97.0105C29.4682 95.7069 28.8712 94.4576 27.8401 93.6428C26.7547 92.6651 24.2041 91.6874 20.1339 90.8183C13.5673 89.3518 8.84588 87.3964 6.07815 84.8978C3.31042 82.5621 1.73661 79.1401 1.84515 75.5009C1.84515 73.0023 2.60492 70.5037 4.01592 68.4397C5.64399 66.104 7.86903 64.2572 10.5282 63.2252C13.4045 61.9759 17.4204 61.3241 22.4674 61.3241C28.6541 61.3241 33.3755 62.4648 36.6317 64.8004C39.8878 67.1361 41.7873 70.7753 42.3842 75.8268L28.2742 76.6416C27.8944 74.4689 27.1346 72.8937 25.8864 71.8617C24.6925 70.8296 23.0101 70.3408 20.8936 70.3951C19.157 70.3951 17.8546 70.7753 16.9863 71.5357C16.1179 72.1876 15.6295 73.1653 15.6838 74.2516C15.6838 75.0664 16.1179 75.8268 16.7692 76.3157C17.4747 76.9675 19.157 77.565 21.8162 78.1081C28.3828 79.5204 33.0499 80.9326 35.9262 82.3992C38.8025 83.8657 40.8647 85.6582 42.1129 87.7766C43.4153 89.9493 44.0666 92.4479 44.0666 94.9464C44.0666 97.9882 43.144 100.976 41.4617 103.529C39.6708 106.19 37.1744 108.254 34.2438 109.503C31.1505 110.861 27.2431 111.568 22.576 111.568C14.3271 111.568 8.6288 109.992 5.42692 106.788C2.22504 103.529 0.434153 99.5091 0 94.6205H0Z" fill="black"/>
<path d="M72.178 90.8183L85.3111 94.7835C84.6056 98.0968 83.1404 101.247 81.1324 104.017C79.2873 106.462 76.8451 108.363 74.0774 109.612C71.2554 110.861 67.6737 111.513 63.3321 111.513C58.068 111.513 53.7265 110.753 50.4161 109.232C47.0514 107.711 44.1751 104.995 41.733 101.139C39.2909 97.2821 38.097 92.3392 38.097 86.31C38.097 78.2711 40.2135 72.0789 44.5007 67.7878C48.788 63.4968 54.8119 61.3241 62.6266 61.3241C68.759 61.3241 73.5347 62.5734 77.0622 65.0177C80.5354 67.5163 83.1404 71.3185 84.877 76.4243L71.6353 79.3574C71.3097 78.2167 70.8213 77.0761 70.17 76.0984C69.356 74.9577 68.3249 74.0886 67.0767 73.4368C65.8285 72.785 64.4175 72.5134 63.0065 72.5134C59.5875 72.5134 56.9826 73.8714 55.1917 76.6415C53.835 78.6513 53.1295 81.856 53.1295 86.2014C53.1295 91.5788 53.9436 95.2723 55.5716 97.2821C57.1997 99.2918 59.479 100.27 62.4638 100.27C65.3401 100.27 67.5108 99.4548 68.9761 97.8796C70.4414 96.1957 71.5268 93.8601 72.178 90.8183ZM102.84 62.1389H117.818V79.1401H134.208V62.1389H149.294V110.698H134.208V91.0356H117.818V110.698H102.84V62.1389V62.1389Z" fill="black"/>
<path d="M147.232 86.4186C147.232 78.4883 149.457 72.2962 153.853 67.8965C158.249 63.4968 164.436 61.2698 172.305 61.2698C180.391 61.2698 186.577 63.4425 190.973 67.7878C195.369 72.1332 197.54 78.2167 197.54 86.0384C197.54 91.7417 196.563 96.3587 194.664 99.9979C192.818 103.583 189.942 106.516 186.415 108.471C182.779 110.481 178.274 111.513 172.902 111.513C167.42 111.513 162.916 110.644 159.334 108.906C155.644 107.059 152.605 104.18 150.597 100.65C148.372 96.8475 147.232 92.1219 147.232 86.4186ZM162.211 86.4729C162.211 91.3615 163.133 94.8921 164.924 97.0648C166.715 99.1832 169.211 100.27 172.359 100.27C175.561 100.27 178.057 99.2375 179.848 97.1191C181.639 95.0007 182.507 91.2529 182.507 85.8211C182.507 81.2585 181.585 77.8908 179.74 75.8268C177.894 73.7084 175.398 72.6764 172.25 72.6764C169.483 72.5677 166.823 73.7627 164.978 75.8811C163.133 77.9995 162.211 81.5301 162.211 86.4729V86.4729ZM212.898 86.4186C212.898 78.4883 215.123 72.2962 219.519 67.8965C223.915 63.4968 230.101 61.2698 237.97 61.2698C246.056 61.2698 252.297 63.4425 256.639 67.7878C260.98 72.1332 263.206 78.2167 263.206 86.0384C263.206 91.7417 262.229 96.3587 260.329 99.9979C258.484 103.583 255.608 106.516 252.08 108.471C248.444 110.481 243.94 111.513 238.567 111.513C233.086 111.513 228.582 110.644 225 108.906C221.31 107.059 218.271 104.18 216.263 100.65C214.038 96.8475 212.898 92.1219 212.898 86.4186V86.4186ZM227.876 86.4729C227.876 91.3615 228.799 94.8921 230.59 97.0648C232.381 99.1832 234.877 100.27 238.025 100.27C241.226 100.27 243.723 99.2375 245.514 97.1191C247.305 95.0007 248.173 91.2529 248.173 85.8211C248.173 81.2585 247.25 77.8908 245.405 75.8268C243.56 73.7084 241.064 72.6764 237.916 72.6764C235.148 72.5677 232.435 73.7627 230.644 75.8811C228.799 77.9995 227.876 81.5301 227.876 86.4729V86.4729Z" fill="black"/>
<path d="M261.632 62.1388H276.61V98.7486H300V110.698H261.577V62.1388H261.632Z" fill="black"/>
<path d="M245.122 59.3365C260.202 47.9624 264.852 28.6817 255.509 16.2716C246.165 3.8616 226.366 3.02174 211.286 14.3958C196.206 25.7698 191.556 45.0506 200.899 57.4606C210.243 69.8706 230.042 70.7105 245.122 59.3365Z" fill="white"/>
<path d="M212.192 33.568L217.619 29.7658L224.295 39.2713C225.434 40.7922 226.302 42.4217 226.954 44.2142C227.334 45.5721 227.225 47.0387 226.682 48.3423C225.977 49.9718 224.837 51.3297 223.318 52.3075C221.527 53.5567 220.007 54.2629 218.705 54.4801C217.457 54.6974 216.154 54.4801 214.96 53.937C213.658 53.2852 212.518 52.3618 211.65 51.1668L216.317 46.8214C216.697 47.4189 217.185 47.9621 217.728 48.3966C218.108 48.6682 218.542 48.8312 219.03 48.8312C219.41 48.8312 219.79 48.6682 220.062 48.4509C220.604 48.125 220.984 47.4732 220.93 46.8214C220.767 45.898 220.387 44.9746 219.79 44.2685L212.192 33.568V33.568ZM228.473 39.5972L233.412 35.6864C233.954 36.3382 234.66 36.8271 235.42 37.0986C236.505 37.4245 237.645 37.2073 238.567 36.5012C239.219 36.0666 239.761 35.4691 239.978 34.7087C240.304 33.731 239.761 32.6446 238.784 32.3187C238.622 32.2644 238.459 32.2101 238.296 32.2101C237.645 32.1558 236.505 32.4274 234.823 33.1335C232.055 34.2742 229.884 34.7087 228.256 34.5457C226.682 34.3828 225.217 33.568 224.349 32.2101C223.698 31.2867 223.372 30.2004 223.318 29.114C223.318 27.8647 223.643 26.6154 224.349 25.5834C225.38 24.1168 226.628 22.8675 228.148 21.8898C230.427 20.3146 232.435 19.5542 234.171 19.5542C235.908 19.5542 237.536 20.369 239.056 22.0528L234.171 25.9093C233.195 24.66 231.349 24.3884 230.101 25.3661L229.939 25.5291C229.396 25.855 229.016 26.3438 228.799 26.9413C228.636 27.3759 228.745 27.8647 229.016 28.2449C229.233 28.5165 229.559 28.7338 229.939 28.7338C230.373 28.7881 231.132 28.5708 232.218 28.082C234.931 26.9413 236.994 26.2895 238.405 26.0723C239.598 25.855 240.847 25.9636 241.986 26.4525C243.017 26.887 243.886 27.6475 244.483 28.5708C245.242 29.6572 245.677 30.9608 245.731 32.3187C245.785 33.731 245.405 35.0889 244.645 36.2839C243.669 37.7505 242.42 38.9997 240.955 39.9775C237.97 42.0415 235.528 42.9106 233.575 42.5847C231.458 42.2588 229.721 41.1724 228.473 39.5972V39.5972Z" fill="black"/>
</g>
<defs>
<clipPath id="clip0_103_45">
<rect width="300" height="111.513" fill="white"/>
</clipPath>
</defs>
</svg>
