<svg width="61" height="59" viewBox="0 0 61 59" fill="none" xmlns="http://www.w3.org/2000/svg">
<path d="M30.6542 0C26.709 0 22.8025 0.775973 19.1577 2.28361C15.5129 3.79126 12.2011 6.00104 9.41149 8.7868C3.77758 14.4129 0.612488 22.0435 0.612488 30C0.612488 43.26 9.23445 54.51 21.161 58.5C22.6631 58.74 23.1437 57.81 23.1437 57V51.93C14.8222 53.73 13.0497 47.91 13.0497 47.91C11.6678 44.43 9.71511 43.5 9.71511 43.5C6.98132 41.64 9.9254 41.7 9.9254 41.7C12.9296 41.91 14.5218 44.79 14.5218 44.79C17.1354 49.35 21.5515 48 23.2639 47.28C23.5343 45.33 24.3154 44.01 25.1565 43.26C18.4873 42.51 11.4876 39.93 11.4876 28.5C11.4876 25.17 12.6292 22.5 14.5819 20.37C14.2814 19.62 13.23 16.5 14.8823 12.45C14.8823 12.45 17.4058 11.64 23.1437 15.51C25.517 14.85 28.1006 14.52 30.6542 14.52C33.2077 14.52 35.7913 14.85 38.1646 15.51C43.9025 11.64 46.426 12.45 46.426 12.45C48.0783 16.5 47.0269 19.62 46.7265 20.37C48.6792 22.5 49.8207 25.17 49.8207 28.5C49.8207 39.96 42.791 42.48 36.0917 43.23C37.1732 44.16 38.1646 45.99 38.1646 48.78V57C38.1646 57.81 38.6452 58.77 40.1774 58.5C52.1039 54.48 60.6958 43.26 60.6958 30C60.6958 26.0603 59.9188 22.1593 58.409 18.5195C56.8993 14.8797 54.6864 11.5726 51.8968 8.7868C49.1072 6.00104 45.7954 3.79126 42.1506 2.28361C38.5058 0.775973 34.5993 0 30.6542 0Z" fill="#C97800"/>
</svg>
