<svg width="61" height="59" viewBox="0 0 61 59" fill="none" xmlns="http://www.w3.org/2000/svg">
<path d="M30.0417 0C26.0965 0 22.19 0.775973 18.5452 2.28361C14.9004 3.79126 11.5886 6.00104 8.799 8.7868C3.1651 14.4129 0 22.0435 0 30C0 43.26 8.62196 54.51 20.5485 58.5C22.0506 58.74 22.5312 57.81 22.5312 57V51.93C14.2097 53.73 12.4373 47.91 12.4373 47.91C11.0553 44.43 9.10262 43.5 9.10262 43.5C6.36883 41.64 9.31292 41.7 9.31292 41.7C12.3171 41.91 13.9093 44.79 13.9093 44.79C16.5229 49.35 20.939 48 22.6514 47.28C22.9218 45.33 23.7029 44.01 24.544 43.26C17.8748 42.51 10.8751 39.93 10.8751 28.5C10.8751 25.17 12.0167 22.5 13.9694 20.37C13.669 19.62 12.6175 16.5 14.2698 12.45C14.2698 12.45 16.7933 11.64 22.5312 15.51C24.9045 14.85 27.4881 14.52 30.0417 14.52C32.5952 14.52 35.1788 14.85 37.5521 15.51C43.29 11.64 45.8135 12.45 45.8135 12.45C47.4658 16.5 46.4144 19.62 46.114 20.37C48.0667 22.5 49.2083 25.17 49.2083 28.5C49.2083 39.96 42.1785 42.48 35.4792 43.23C36.5607 44.16 37.5521 45.99 37.5521 48.78V57C37.5521 57.81 38.0328 58.77 39.5649 58.5C51.4914 54.48 60.0833 43.26 60.0833 30C60.0833 26.0603 59.3063 22.1593 57.7966 18.5195C56.2868 14.8797 54.074 11.5726 51.2843 8.7868C48.4947 6.00104 45.1829 3.79126 41.5381 2.28361C37.8933 0.775973 33.9868 0 30.0417 0Z" fill="#FFD600"/>
</svg>
