<svg width="155" height="61" viewBox="0 0 155 61" fill="none" xmlns="http://www.w3.org/2000/svg">
<path d="M79.6177 22.0481L86.9546 21.5761C87.1219 22.77 87.4288 23.6584 87.9309 24.297C88.74 25.2965 89.8558 25.7963 91.3344 25.7963C92.4223 25.7963 93.2871 25.5464 93.873 25.0189C94.4309 24.6024 94.7657 23.9361 94.7657 23.242C94.7657 22.5756 94.4588 21.937 93.9288 21.5206C93.3708 21.0208 92.0597 20.5211 89.9953 20.0768C86.6198 19.3272 84.1928 18.3277 82.77 17.0505C81.3473 15.8567 80.5383 14.1075 80.5941 12.2473C80.5941 10.9702 80.9846 9.69301 81.7099 8.63797C82.5468 7.44411 83.6906 6.50012 85.0576 5.9726C86.5361 5.33403 88.6005 5.00085 91.1949 5.00085C94.3751 5.00085 96.8021 5.5839 98.476 6.77777C100.15 7.94386 101.154 9.83183 101.461 12.4139L94.2077 12.8304C94.0125 11.7198 93.6219 10.9146 92.9803 10.3871C92.3386 9.8596 91.5017 9.60972 90.4138 9.60972C89.5211 9.60972 88.8515 9.80407 88.4052 10.165C87.9867 10.4982 87.7078 10.9979 87.7357 11.5532C87.7357 11.9697 87.9588 12.3584 88.2936 12.6083C88.6563 12.9414 89.5211 13.2468 90.888 13.5245C94.2635 14.2463 96.6627 14.9682 98.1412 15.7179C99.6197 16.4675 100.68 17.3837 101.321 18.4665C101.991 19.5771 102.326 20.8542 102.298 22.1592C102.298 23.714 101.851 25.2688 100.959 26.5737C100.038 27.9341 98.7549 28.9892 97.2485 29.6277C95.6584 30.3218 93.6498 30.6828 91.2507 30.6828C87.0103 30.6828 84.0812 29.8776 82.4353 28.2395C80.7893 26.6014 79.8129 24.5469 79.6177 22.0481ZM1.7575 30.2663V5.44508H14.618C16.9892 5.44508 18.8304 5.63943 20.0857 6.0559C21.3132 6.4446 22.4012 7.24976 23.1265 8.33256C23.9355 9.52643 24.3261 10.9146 24.2982 12.3584C24.3819 14.8016 23.1265 17.1338 20.9784 18.3555C20.1415 18.8274 19.2209 19.1606 18.2725 19.3272C18.9699 19.5216 19.6673 19.8547 20.281 20.2434C20.7553 20.6321 21.1458 21.0764 21.5085 21.5483C21.9269 22.0203 22.2896 22.5479 22.5965 23.1031L26.3346 30.2941H17.575L13.4463 22.6589C12.9163 21.6872 12.4699 21.0486 12.0514 20.7432C11.4935 20.3545 10.824 20.1601 10.1545 20.1601H9.48494V30.2386H1.7575V30.2663ZM9.48494 15.4957H12.7489C13.4463 15.4402 14.1158 15.3292 14.7853 15.1626C15.2875 15.0793 15.7338 14.8016 16.0407 14.3852C16.7939 13.3857 16.6823 11.9697 15.7617 11.109C15.2596 10.6925 14.2832 10.4704 12.8884 10.4704H9.48494V15.4957ZM0 51.5337L7.33688 51.0617C7.50426 52.2556 7.81112 53.1441 8.31327 53.7826C9.09438 54.7821 10.2382 55.3097 11.7167 55.3097C12.8047 55.3097 13.6695 55.0598 14.2553 54.5323C14.8132 54.088 15.148 53.4495 15.148 52.7554C15.148 52.089 14.8411 51.4504 14.3111 51.034C13.7532 50.5342 12.442 50.0345 10.3497 49.5902C6.97422 48.8406 4.54719 47.8411 3.12445 46.5639C1.70171 45.3701 0.8927 43.6209 0.948494 41.7607C0.948494 40.4836 1.33905 39.2064 2.06437 38.1514C2.90127 36.9575 4.04505 36.0135 5.41199 35.486C6.89053 34.8474 8.9549 34.5142 11.5493 34.5142C14.7295 34.5142 17.1566 35.0973 18.8304 36.2912C20.5042 37.485 21.4806 39.3452 21.7875 41.9273L14.5343 42.3438C14.339 41.2332 13.9484 40.428 13.3068 39.9005C12.6931 39.373 11.8283 39.1231 10.7403 39.1509C9.8476 39.1509 9.17807 39.3452 8.73172 39.7339C8.28537 40.0671 8.0343 40.5669 8.0622 41.1221C8.0622 41.5386 8.28537 41.9273 8.62013 42.1772C8.98279 42.5103 9.8476 42.8158 11.2145 43.0934C14.5901 43.8153 16.9892 44.5371 18.4677 45.2868C19.9463 46.0364 21.0063 46.9526 21.648 48.0354C22.3175 49.146 22.6523 50.4232 22.6523 51.7003C22.6523 53.2551 22.178 54.7821 21.3132 56.0871C20.3926 57.4475 19.1094 58.5026 17.6029 59.1411C16.0128 59.8352 14.0042 60.1962 11.6051 60.1962C7.36477 60.1962 4.4356 59.391 2.78969 57.7529C1.14377 56.0871 0.223175 54.0325 0 51.5337Z" fill="#FFD600"/>
<path d="M37.1029 49.5903L43.8539 51.6171C43.4912 53.3107 42.738 54.921 41.7058 56.337C40.7573 57.5864 39.502 58.5581 38.0792 59.1967C36.6286 59.8353 34.7874 60.1684 32.5557 60.1684C29.8497 60.1684 27.6179 59.7797 25.9162 59.0024C24.1866 58.225 22.7081 56.8367 21.4527 54.8655C20.1974 52.8942 19.5836 50.3677 19.5836 47.2858C19.5836 43.1767 20.6716 40.0116 22.8754 37.8182C25.0793 35.6249 28.1759 34.5143 32.193 34.5143C35.3454 34.5143 37.8003 35.1529 39.6136 36.4022C41.399 37.6794 42.738 39.6229 43.6307 42.2327L36.8239 43.732C36.6565 43.149 36.4054 42.5659 36.0707 42.0662C35.6522 41.4831 35.1222 41.0389 34.4805 40.7057C33.8389 40.3725 33.1136 40.2337 32.3883 40.2337C30.6308 40.2337 29.2917 40.9278 28.3711 42.3438C27.6737 43.3711 27.3111 45.0092 27.3111 47.2303C27.3111 49.979 27.7295 51.8669 28.5664 52.8942C29.4033 53.9215 30.575 54.4212 32.1093 54.4212C33.5878 54.4212 34.7037 54.0048 35.4569 53.1996C36.2102 52.3389 36.7681 51.1451 37.1029 49.5903ZM52.8646 34.9307H60.5641V43.621H68.989V34.9307H76.7443V59.752H68.989V49.7013H60.5641V59.752H52.8646V34.9307Z" fill="#FFD600"/>
<path d="M75.6842 47.3414C75.6842 43.2878 76.828 40.1227 79.0876 37.8738C81.3473 35.6249 84.5275 34.4866 88.5726 34.4866C92.7292 34.4866 95.9094 35.5971 98.1691 37.8183C100.429 40.0394 101.545 43.149 101.545 47.1471C101.545 50.0623 101.042 52.4223 100.066 54.2825C99.1176 56.1149 97.639 57.6142 95.8257 58.6137C93.9567 59.641 91.6412 60.1685 88.8794 60.1685C86.0618 60.1685 83.7464 59.7243 81.9052 58.8358C80.0082 57.8918 78.446 56.4203 77.4138 54.6157C76.27 52.6722 75.6842 50.2567 75.6842 47.3414ZM83.3837 47.3692C83.3837 49.868 83.858 51.6726 84.7786 52.7832C85.6992 53.866 86.9824 54.4213 88.6005 54.4213C90.2464 54.4213 91.5296 53.8938 92.4502 52.811C93.3708 51.7282 93.8172 49.8124 93.8172 47.036C93.8172 44.7038 93.3429 42.9824 92.3944 41.9274C91.4459 40.8446 90.1627 40.3171 88.5447 40.3171C87.1219 40.2615 85.755 40.8723 84.8065 41.9552C83.858 43.038 83.3837 44.8426 83.3837 47.3692ZM109.439 47.3414C109.439 43.2878 110.583 40.1227 112.843 37.8738C115.102 35.6249 118.283 34.4866 122.328 34.4866C126.484 34.4866 129.693 35.5971 131.924 37.8183C134.156 40.0394 135.3 43.149 135.3 47.1471C135.3 50.0623 134.798 52.4223 133.821 54.2825C132.873 56.1149 131.394 57.6142 129.581 58.6137C127.712 59.641 125.396 60.1685 122.635 60.1685C119.817 60.1685 117.502 59.7243 115.66 58.8358C113.763 57.8918 112.201 56.4203 111.169 54.6157C110.025 52.6722 109.439 50.2567 109.439 47.3414ZM117.139 47.3692C117.139 49.868 117.613 51.6726 118.534 52.7832C119.454 53.866 120.738 54.4213 122.356 54.4213C124.002 54.4213 125.285 53.8938 126.205 52.811C127.126 51.7282 127.572 49.8124 127.572 47.036C127.572 44.7038 127.098 42.9824 126.15 41.9274C125.201 40.8446 123.918 40.3171 122.3 40.3171C120.877 40.2615 119.482 40.8723 118.562 41.9552C117.613 43.038 117.139 44.8426 117.139 47.3692Z" fill="#FFD600"/>
<path d="M134.491 34.9308H142.19V53.6439H154.214V59.752H134.463V34.9308H134.491Z" fill="#FFD600"/>
<path d="M126.004 33.4983C133.756 27.6845 136.146 17.8291 131.343 11.4857C126.54 5.14229 116.362 4.713 108.611 10.5268C100.859 16.3407 98.4684 26.196 103.272 32.5394C108.075 38.8828 118.252 39.3121 126.004 33.4983Z" fill="white"/>
<mask id="mask0_23_2" style="mask-type:luminance" maskUnits="userSpaceOnUse" x="100" y="6" width="34" height="32">
<path d="M126.004 33.4983C133.756 27.6845 136.146 17.8291 131.343 11.4857C126.54 5.14229 116.362 4.713 108.611 10.5268C100.859 16.3407 98.4684 26.196 103.272 32.5394C108.075 38.8828 118.252 39.3121 126.004 33.4983Z" fill="white"/>
</mask>
<g mask="url(#mask0_23_2)">
<path d="M83.5023 18.8665L123.56 -11.1769L151.279 25.4311L111.221 55.4744L83.5023 18.8665Z" fill="white"/>
<mask id="mask1_23_2" style="mask-type:luminance" maskUnits="userSpaceOnUse" x="83" y="-12" width="69" height="68">
<path d="M83.5023 18.8665L123.56 -11.1769L151.279 25.4311L111.221 55.4744L83.5023 18.8665Z" fill="white"/>
</mask>
<g mask="url(#mask1_23_2)">
<path d="M126.004 33.4983C133.756 27.6845 136.146 17.8291 131.343 11.4857C126.54 5.14229 116.362 4.713 108.611 10.5268C100.859 16.3407 98.4684 26.196 103.272 32.5394C108.075 38.8828 118.252 39.3121 126.004 33.4983Z" fill="white"/>
<mask id="mask2_23_2" style="mask-type:luminance" maskUnits="userSpaceOnUse" x="100" y="6" width="34" height="32">
<path d="M126.004 33.4983C133.756 27.6845 136.146 17.8291 131.343 11.4857C126.54 5.14229 116.362 4.713 108.611 10.5268C100.859 16.3407 98.4684 26.196 103.272 32.5394C108.075 38.8828 118.252 39.3121 126.004 33.4983Z" fill="white"/>
</mask>
<g mask="url(#mask2_23_2)">
<path d="M94.657 21.3109L122.707 0.274351L140.117 23.2683L112.067 44.3048L94.657 21.3109Z" fill="white"/>
<mask id="mask3_23_2" style="mask-type:luminance" maskUnits="userSpaceOnUse" x="94" y="0" width="47" height="45">
<path d="M94.657 21.311L122.707 0.274473L140.117 23.2684L112.067 44.305L94.657 21.311Z" fill="white"/>
</mask>
<g mask="url(#mask3_23_2)">
<path d="M126.004 33.4983C133.756 27.6845 136.146 17.8291 131.343 11.4857C126.54 5.14229 116.362 4.713 108.611 10.5268C100.859 16.3407 98.4684 26.196 103.272 32.5394C108.075 38.8828 118.252 39.3121 126.004 33.4983Z" fill="white" stroke="#FFD600" stroke-width="4" stroke-miterlimit="10"/>
</g>
<mask id="mask4_23_2" style="mask-type:luminance" maskUnits="userSpaceOnUse" x="98" y="1" width="39" height="43">
<path d="M98.6542 35.1089L108.323 1.51906L136.144 9.46633L126.475 43.0562L98.6542 35.1089Z" fill="white"/>
</mask>
<g mask="url(#mask4_23_2)">
<path d="M94.657 21.3008L122.697 0.274446L140.117 23.2786L112.077 44.3049L94.657 21.3008Z" stroke="#FFD600" stroke-width="4" stroke-miterlimit="10"/>
</g>
<path d="M126.004 33.4983C133.756 27.6845 136.146 17.8291 131.343 11.4857C126.54 5.14229 116.362 4.713 108.611 10.5268C100.859 16.3407 98.4684 26.196 103.272 32.5394C108.075 38.8828 118.252 39.3121 126.004 33.4983Z" stroke="#FFD600" stroke-width="4" stroke-miterlimit="10"/>
<path d="M94.657 21.3109L122.707 0.274351L140.117 23.2683L112.067 44.3048L94.657 21.3109Z" fill="white"/>
<mask id="mask5_23_2" style="mask-type:luminance" maskUnits="userSpaceOnUse" x="94" y="0" width="47" height="45">
<path d="M94.657 21.311L122.707 0.274473L140.117 23.2684L112.067 44.305L94.657 21.311Z" fill="white"/>
</mask>
<g mask="url(#mask5_23_2)">
<path d="M126.004 33.4983C133.756 27.6845 136.146 17.8291 131.343 11.4857C126.54 5.14229 116.362 4.713 108.611 10.5268C100.859 16.3407 98.4684 26.196 103.272 32.5394C108.075 38.8828 118.252 39.3121 126.004 33.4983Z" fill="white" stroke="#FFD600" stroke-width="4" stroke-miterlimit="10"/>
</g>
<mask id="mask6_23_2" style="mask-type:luminance" maskUnits="userSpaceOnUse" x="98" y="1" width="39" height="43">
<path d="M98.6542 35.1089L108.323 1.51906L136.144 9.46633L126.475 43.0562L98.6542 35.1089Z" fill="white"/>
</mask>
<g mask="url(#mask6_23_2)">
<path d="M94.657 21.3008L122.697 0.274446L140.117 23.2786L112.077 44.3049L94.657 21.3008Z" stroke="#FFD600" stroke-width="4" stroke-miterlimit="10"/>
</g>
<path d="M83.5023 18.8665L123.56 -11.1769L151.279 25.4311L111.221 55.4744L83.5023 18.8665Z" stroke="#FFD600" stroke-width="4" stroke-miterlimit="10"/>
</g>
<path d="M126.004 33.4983C133.756 27.6845 136.146 17.8291 131.343 11.4857C126.54 5.14229 116.362 4.713 108.611 10.5268C100.859 16.3407 98.4684 26.196 103.272 32.5394C108.075 38.8828 118.252 39.3121 126.004 33.4983Z" stroke="#FFD600" stroke-width="4" stroke-miterlimit="10"/>
<path d="M109.467 20.188L112.257 18.2445L115.688 23.1032C116.274 23.8806 116.72 24.7135 117.055 25.6297C117.25 26.3239 117.195 27.0735 116.916 27.7398C116.553 28.5728 115.967 29.2669 115.186 29.7666C114.266 30.4052 113.484 30.7661 112.815 30.8772C112.173 30.9883 111.504 30.8772 110.89 30.5996C110.22 30.2664 109.635 29.7944 109.188 29.1836L111.587 26.9624C111.783 27.2678 112.034 27.5455 112.313 27.7676C112.508 27.9064 112.731 27.9897 112.982 27.9897C113.178 27.9897 113.373 27.9064 113.512 27.7954C113.791 27.6288 113.987 27.2956 113.959 26.9624C113.875 26.4904 113.68 26.0184 113.373 25.6575L109.467 20.188ZM117.836 23.2698L120.375 21.2708C120.654 21.6039 121.017 21.8538 121.407 21.9926C121.965 22.1592 122.551 22.0482 123.025 21.6872C123.36 21.4651 123.639 21.1597 123.75 20.771C123.918 20.2712 123.639 19.716 123.137 19.5494C123.053 19.5216 122.969 19.4939 122.886 19.4939C122.551 19.4661 121.965 19.6049 121.1 19.9658C119.678 20.5489 118.562 20.771 117.725 20.6877C116.916 20.6044 116.163 20.188 115.716 19.4939C115.381 19.0219 115.214 18.4666 115.186 17.9113C115.186 17.2727 115.353 16.6341 115.716 16.1066C116.246 15.357 116.888 14.7184 117.669 14.2186C118.841 13.4135 119.873 13.0248 120.765 13.0248C121.658 13.0248 122.495 13.4412 123.276 14.3019L120.765 16.2732C120.263 15.6346 119.315 15.4958 118.673 15.9956L118.59 16.0788C118.311 16.2454 118.115 16.4953 118.004 16.8007C117.92 17.0228 117.976 17.2727 118.115 17.4671C118.227 17.6059 118.394 17.7169 118.59 17.7169C118.813 17.7447 119.203 17.6336 119.761 17.3838C121.156 16.8007 122.216 16.4675 122.941 16.3565C123.555 16.2454 124.197 16.301 124.783 16.5508C125.313 16.773 125.759 17.1617 126.066 17.6336C126.456 18.1889 126.68 18.8553 126.708 19.5494C126.735 20.2712 126.54 20.9654 126.15 21.5762C125.647 22.3258 125.006 22.9644 124.253 23.4641C122.718 24.5192 121.463 24.9634 120.459 24.7968C119.371 24.6302 118.478 24.075 117.836 23.2698Z" fill="#FFD600"/>
</g>
</g>
</svg>
