<svg width="155" height="62" viewBox="0 0 155 62" fill="none" xmlns="http://www.w3.org/2000/svg">
<path d="M79.7927 22.8796L87.1296 22.4077C87.297 23.6015 87.6039 24.49 88.106 25.1285C88.915 26.1281 90.0309 26.6278 91.5094 26.6278C92.5974 26.6278 93.4622 26.3779 94.048 25.8504C94.606 25.434 94.9407 24.7676 94.9407 24.0735C94.9407 23.4072 94.6339 22.7686 94.1038 22.3521C93.5459 21.8524 92.2347 21.3526 90.1704 20.9084C86.7948 20.1587 84.3678 19.1592 82.9451 17.8821C81.5223 16.6882 80.7133 14.9391 80.7691 13.0789C80.7691 11.8017 81.1597 10.5246 81.885 9.46951C82.7219 8.27565 83.8657 7.33167 85.2326 6.80415C86.7111 6.16557 88.7755 5.8324 91.3699 5.8324C94.5502 5.8324 96.9772 6.41545 98.651 7.60931C100.325 8.77541 101.329 10.6634 101.636 13.2455L94.3828 13.6619C94.1875 12.5513 93.797 11.7462 93.1553 11.2187C92.5137 10.6911 91.6768 10.4413 90.5888 10.4413C89.6961 10.4413 89.0266 10.6356 88.5802 10.9965C88.1618 11.3297 87.8828 11.8295 87.9107 12.3848C87.9107 12.8012 88.1339 13.1899 88.4687 13.4398C88.8313 13.773 89.6961 14.0784 91.0631 14.356C94.4386 15.0779 96.8377 15.7998 98.3162 16.5494C99.7948 17.299 100.855 18.2153 101.496 19.2981C102.166 20.4086 102.501 21.6858 102.473 22.9907C102.473 24.5455 102.027 26.1003 101.134 27.4052C100.213 28.7657 98.93 29.8207 97.4235 30.4593C95.8334 31.1534 93.8249 31.5143 91.4257 31.5143C87.1854 31.5143 84.2562 30.7092 82.6103 29.0711C80.9644 27.433 79.988 25.3784 79.7927 22.8796ZM1.93255 31.0979V6.27663H14.793C17.1642 6.27663 19.0054 6.47098 20.2608 6.88744C21.4883 7.27614 22.5762 8.0813 23.3016 9.16411C24.1106 10.358 24.5011 11.7462 24.4732 13.1899C24.5569 15.6332 23.3016 17.9654 21.1535 19.187C20.3166 19.659 19.396 19.9922 18.4475 20.1587C19.1449 20.3531 19.8423 20.6863 20.4561 21.075C20.9303 21.4637 21.3209 21.9079 21.6835 22.3799C22.102 22.8519 22.4646 23.3794 22.7715 23.9347L26.5097 31.1256H17.7501L13.6213 23.4905C13.0913 22.5187 12.645 21.8801 12.2265 21.5747C11.6686 21.186 10.999 20.9917 10.3295 20.9917H9.65999V31.0701H1.93255V31.0979ZM9.65999 16.3273H12.9239C13.6213 16.2718 14.2909 16.1607 14.9604 15.9941C15.4625 15.9108 15.9089 15.6332 16.2157 15.2167C16.969 14.2172 16.8574 12.8012 15.9368 11.9405C15.4346 11.5241 14.4582 11.302 13.0634 11.302H9.65999V16.3273ZM0.175049 52.3653L7.51193 51.8933C7.67931 53.0871 7.98617 53.9756 8.48832 54.6142C9.26943 55.6137 10.4132 56.1412 11.8917 56.1412C12.9797 56.1412 13.8445 55.8913 14.4304 55.3638C14.9883 54.9196 15.3231 54.281 15.3231 53.5869C15.3231 52.9206 15.0162 52.282 14.4861 51.8655C13.9282 51.3658 12.6171 50.866 10.5248 50.4218C7.14927 49.6721 4.72224 48.6726 3.2995 47.3955C1.87676 46.2016 1.06775 44.4525 1.12354 42.5923C1.12354 41.3151 1.5141 40.0379 2.23942 38.9829C3.07632 37.789 4.2201 36.8451 5.58704 36.3175C7.06558 35.679 9.12994 35.3458 11.7244 35.3458C14.9046 35.3458 17.3316 35.9288 19.0054 37.1227C20.6793 38.3166 21.6556 40.1768 21.9625 42.7588L14.7093 43.1753C14.514 42.0647 14.1235 41.2596 13.4819 40.7321C12.8681 40.2045 12.0033 39.9547 10.9153 39.9824C10.0226 39.9824 9.35312 40.1768 8.90677 40.5655C8.46042 40.8986 8.20935 41.3984 8.23724 41.9537C8.23724 42.3701 8.46042 42.7588 8.79518 43.0087C9.15784 43.3419 10.0226 43.6473 11.3896 43.9249C14.7651 44.6468 17.1642 45.3687 18.6428 46.1183C20.1213 46.868 21.1814 47.7842 21.823 48.867C22.4925 49.9775 22.8273 51.2547 22.8273 52.5319C22.8273 54.0867 22.3531 55.6137 21.4883 56.9186C20.5677 58.2791 19.2844 59.3341 17.778 59.9727C16.1879 60.6668 14.1793 61.0277 11.7801 61.0277C7.53982 61.0277 4.61065 60.2226 2.96474 58.5845C1.31882 56.9186 0.398224 54.8641 0.175049 52.3653Z" fill="#C97800"/>
<path d="M37.2779 50.4218L44.0289 52.4486C43.6663 54.1422 42.9131 55.7525 41.8809 57.1685C40.9324 58.4179 39.677 59.3897 38.2543 60.0282C36.8037 60.6668 34.9625 61 32.7307 61C30.0247 61 27.793 60.6113 26.0913 59.8339C24.3617 59.0565 22.8831 57.6683 21.6278 55.697C20.3724 53.7258 19.7587 51.1992 19.7587 48.1174C19.7587 44.0083 20.8466 40.8431 23.0505 38.6498C25.2544 36.4564 28.3509 35.3458 32.3681 35.3458C35.5204 35.3458 37.9753 35.9844 39.7886 37.2338C41.574 38.5109 42.9131 40.4544 43.8058 43.0643L36.9989 44.5636C36.8316 43.9805 36.5805 43.3975 36.2457 42.8977C35.8273 42.3147 35.2972 41.8704 34.6556 41.5373C34.014 41.2041 33.2887 41.0653 32.5633 41.0653C30.8058 41.0653 29.4668 41.7594 28.5462 43.1753C27.8488 44.2026 27.4861 45.8407 27.4861 48.0618C27.4861 50.8105 27.9046 52.6985 28.7415 53.7258C29.5784 54.753 30.75 55.2528 32.2844 55.2528C33.7629 55.2528 34.8788 54.8363 35.632 54.0312C36.3852 53.1705 36.9431 51.9766 37.2779 50.4218ZM53.0396 35.7623H60.7392V44.4525H69.164V35.7623H76.9194V60.5835H69.164V50.5329H60.7392V60.5835H53.0396V35.7623Z" fill="#C97800"/>
<path d="M75.8593 48.173C75.8593 44.1194 77.003 40.9543 79.2627 38.7054C81.5223 36.4564 84.7026 35.3181 88.7476 35.3181C92.9042 35.3181 96.0845 36.4287 98.3441 38.6498C100.604 40.871 101.72 43.9806 101.72 47.9786C101.72 50.8939 101.218 53.2538 100.241 55.114C99.2926 56.9465 97.8141 58.4457 96.0008 59.4452C94.1317 60.4725 91.8163 61 89.0545 61C86.2369 61 83.9215 60.5558 82.0803 59.6674C80.1833 58.7234 78.621 57.2519 77.5889 55.4472C76.4451 53.5037 75.8593 51.0882 75.8593 48.173ZM83.5588 48.2007C83.5588 50.6995 84.033 52.5042 84.9536 53.6148C85.8742 54.6976 87.1575 55.2528 88.7755 55.2528C90.4214 55.2528 91.7047 54.7253 92.6253 53.6425C93.5459 52.5597 93.9922 50.644 93.9922 47.8676C93.9922 45.5354 93.518 43.814 92.5695 42.7589C91.621 41.6761 90.3377 41.1486 88.7197 41.1486C87.297 41.0931 85.93 41.7039 84.9815 42.7867C84.033 43.8695 83.5588 45.6742 83.5588 48.2007ZM109.614 48.173C109.614 44.1194 110.758 40.9543 113.018 38.7054C115.278 36.4564 118.458 35.3181 122.503 35.3181C126.659 35.3181 129.868 36.4287 132.099 38.6498C134.331 40.871 135.475 43.9806 135.475 47.9786C135.475 50.8939 134.973 53.2538 133.996 55.114C133.048 56.9465 131.569 58.4457 129.756 59.4452C127.887 60.4725 125.571 61 122.81 61C119.992 61 117.677 60.5558 115.835 59.6674C113.938 58.7234 112.376 57.2519 111.344 55.4472C110.2 53.5037 109.614 51.0882 109.614 48.173ZM117.314 48.2007C117.314 50.6995 117.788 52.5042 118.709 53.6148C119.629 54.6976 120.913 55.2528 122.531 55.2528C124.177 55.2528 125.46 54.7253 126.38 53.6425C127.301 52.5597 127.747 50.644 127.747 47.8676C127.747 45.5354 127.273 43.814 126.325 42.7589C125.376 41.6761 124.093 41.1486 122.475 41.1486C121.052 41.0931 119.657 41.7039 118.737 42.7867C117.788 43.8695 117.314 45.6742 117.314 48.2007Z" fill="#C97800"/>
<path d="M134.666 35.7623H142.365V54.4754H154.389V60.5836H134.638V35.7623H134.666Z" fill="#C97800"/>
<path d="M126.179 34.3298C133.931 28.516 136.321 18.6606 131.518 12.3172C126.715 5.97384 116.537 5.54454 108.786 11.3584C101.034 17.1722 98.6435 27.0276 103.447 33.371C108.25 39.7144 118.427 40.1437 126.179 34.3298Z" fill="white"/>
<mask id="mask0_10_130" style="mask-type:luminance" maskUnits="userSpaceOnUse" x="100" y="7" width="34" height="32">
<path d="M126.179 34.3298C133.931 28.516 136.321 18.6606 131.518 12.3172C126.715 5.97384 116.537 5.54454 108.786 11.3584C101.034 17.1722 98.6435 27.0276 103.447 33.371C108.25 39.7144 118.427 40.1437 126.179 34.3298Z" fill="white"/>
</mask>
<g mask="url(#mask0_10_130)">
<path d="M83.6773 19.698L123.735 -10.3454L151.454 26.2626L111.396 56.306L83.6773 19.698Z" fill="white"/>
<mask id="mask1_10_130" style="mask-type:luminance" maskUnits="userSpaceOnUse" x="83" y="-11" width="69" height="68">
<path d="M83.6773 19.698L123.735 -10.3454L151.454 26.2626L111.396 56.306L83.6773 19.698Z" fill="white"/>
</mask>
<g mask="url(#mask1_10_130)">
<path d="M126.179 34.3298C133.931 28.516 136.321 18.6606 131.518 12.3172C126.715 5.97384 116.537 5.54454 108.786 11.3584C101.034 17.1722 98.6435 27.0276 103.447 33.371C108.25 39.7144 118.427 40.1437 126.179 34.3298Z" fill="white"/>
<mask id="mask2_10_130" style="mask-type:luminance" maskUnits="userSpaceOnUse" x="100" y="7" width="34" height="32">
<path d="M126.179 34.3298C133.931 28.516 136.321 18.6606 131.518 12.3172C126.715 5.97384 116.537 5.54454 108.786 11.3584C101.034 17.1722 98.6435 27.0276 103.447 33.371C108.25 39.7144 118.427 40.1437 126.179 34.3298Z" fill="white"/>
</mask>
<g mask="url(#mask2_10_130)">
<path d="M94.832 22.1425L122.882 1.10589L140.292 24.0998L112.242 45.1364L94.832 22.1425Z" fill="white"/>
<mask id="mask3_10_130" style="mask-type:luminance" maskUnits="userSpaceOnUse" x="94" y="1" width="47" height="45">
<path d="M94.832 22.1426L122.882 1.10602L140.292 24.0999L112.242 45.1365L94.832 22.1426Z" fill="white"/>
</mask>
<g mask="url(#mask3_10_130)">
<path d="M126.179 34.3298C133.931 28.516 136.321 18.6606 131.518 12.3172C126.715 5.97384 116.537 5.54454 108.786 11.3584C101.034 17.1722 98.6435 27.0276 103.447 33.371C108.25 39.7144 118.427 40.1437 126.179 34.3298Z" fill="white" stroke="#C97800" stroke-width="4" stroke-miterlimit="10"/>
</g>
<mask id="mask4_10_130" style="mask-type:luminance" maskUnits="userSpaceOnUse" x="98" y="2" width="39" height="42">
<path d="M98.8292 35.9404L108.498 2.3506L136.319 10.2979L126.65 43.8877L98.8292 35.9404Z" fill="white"/>
</mask>
<g mask="url(#mask4_10_130)">
<path d="M94.832 22.1323L122.872 1.10599L140.292 24.1101L112.252 45.1365L94.832 22.1323Z" stroke="#C97800" stroke-width="4" stroke-miterlimit="10"/>
</g>
<path d="M126.179 34.3298C133.931 28.516 136.321 18.6606 131.518 12.3172C126.715 5.97384 116.537 5.54454 108.786 11.3584C101.034 17.1722 98.6435 27.0276 103.447 33.371C108.25 39.7144 118.427 40.1437 126.179 34.3298Z" stroke="#C97800" stroke-width="4" stroke-miterlimit="10"/>
<path d="M94.832 22.1425L122.882 1.10589L140.292 24.0998L112.242 45.1364L94.832 22.1425Z" fill="white"/>
<mask id="mask5_10_130" style="mask-type:luminance" maskUnits="userSpaceOnUse" x="94" y="1" width="47" height="45">
<path d="M94.832 22.1426L122.882 1.10602L140.292 24.0999L112.242 45.1365L94.832 22.1426Z" fill="white"/>
</mask>
<g mask="url(#mask5_10_130)">
<path d="M126.179 34.3298C133.931 28.516 136.321 18.6606 131.518 12.3172C126.715 5.97384 116.537 5.54454 108.786 11.3584C101.034 17.1722 98.6435 27.0276 103.447 33.371C108.25 39.7144 118.427 40.1437 126.179 34.3298Z" fill="white" stroke="#C97800" stroke-width="4" stroke-miterlimit="10"/>
</g>
<mask id="mask6_10_130" style="mask-type:luminance" maskUnits="userSpaceOnUse" x="98" y="2" width="39" height="42">
<path d="M98.8292 35.9404L108.498 2.3506L136.319 10.2979L126.65 43.8877L98.8292 35.9404Z" fill="white"/>
</mask>
<g mask="url(#mask6_10_130)">
<path d="M94.832 22.1323L122.872 1.10599L140.292 24.1101L112.252 45.1365L94.832 22.1323Z" stroke="#C97800" stroke-width="4" stroke-miterlimit="10"/>
</g>
<path d="M83.6773 19.698L123.735 -10.3454L151.454 26.2626L111.396 56.306L83.6773 19.698Z" stroke="#C97800" stroke-width="4" stroke-miterlimit="10"/>
</g>
<path d="M126.179 34.3298C133.931 28.516 136.321 18.6606 131.518 12.3172C126.715 5.97384 116.537 5.54454 108.786 11.3584C101.034 17.1722 98.6435 27.0276 103.447 33.371C108.25 39.7144 118.427 40.1437 126.179 34.3298Z" stroke="#C97800" stroke-width="4" stroke-miterlimit="10"/>
<path d="M109.642 21.0195L112.432 19.076L115.863 23.9347C116.449 24.7121 116.896 25.5451 117.23 26.4613C117.426 27.1554 117.37 27.905 117.091 28.5714C116.728 29.4043 116.142 30.0984 115.361 30.5982C114.441 31.2367 113.659 31.5977 112.99 31.7087C112.348 31.8198 111.679 31.7087 111.065 31.4311C110.396 31.0979 109.81 30.6259 109.363 30.0151L111.762 27.794C111.958 28.0994 112.209 28.377 112.488 28.5991C112.683 28.738 112.906 28.8213 113.157 28.8213C113.353 28.8213 113.548 28.738 113.687 28.6269C113.966 28.4603 114.162 28.1271 114.134 27.794C114.05 27.322 113.855 26.85 113.548 26.4891L109.642 21.0195ZM118.011 24.1013L120.55 22.1023C120.829 22.4355 121.192 22.6854 121.582 22.8242C122.14 22.9908 122.726 22.8797 123.2 22.5188C123.535 22.2967 123.814 21.9912 123.926 21.6025C124.093 21.1028 123.814 20.5475 123.312 20.3809C123.228 20.3532 123.144 20.3254 123.061 20.3254C122.726 20.2976 122.14 20.4365 121.275 20.7974C119.853 21.3804 118.737 21.6025 117.9 21.5193C117.091 21.436 116.338 21.0195 115.891 20.3254C115.556 19.8534 115.389 19.2981 115.361 18.7428C115.361 18.1043 115.529 17.4657 115.891 16.9382C116.421 16.1885 117.063 15.5499 117.844 15.0502C119.016 14.245 120.048 13.8563 120.941 13.8563C121.833 13.8563 122.67 14.2728 123.451 15.1335L120.941 17.1047C120.438 16.4662 119.49 16.3273 118.848 16.8271L118.765 16.9104C118.486 17.077 118.29 17.3269 118.179 17.6323C118.095 17.8544 118.151 18.1043 118.29 18.2986C118.402 18.4374 118.569 18.5485 118.765 18.5485C118.988 18.5762 119.378 18.4652 119.936 18.2153C121.331 17.6323 122.391 17.2991 123.117 17.188C123.73 17.077 124.372 17.1325 124.958 17.3824C125.488 17.6045 125.934 17.9932 126.241 18.4652C126.632 19.0205 126.855 19.6868 126.883 20.3809C126.91 21.1028 126.715 21.7969 126.325 22.4077C125.823 23.1573 125.181 23.7959 124.428 24.2957C122.893 25.3507 121.638 25.795 120.634 25.6284C119.546 25.4618 118.653 24.9065 118.011 24.1013Z" fill="#C97800"/>
</g>
</g>
</svg>
