<svg width="31" height="30" viewBox="0 0 31 30" fill="none" xmlns="http://www.w3.org/2000/svg">
<path d="M15.1597 0C13.1872 0 11.2339 0.387987 9.41149 1.14181C7.58908 1.89563 5.9332 3.00052 4.53839 4.3934C1.72143 7.20644 0.138885 11.0218 0.138885 15C0.138885 21.63 4.44987 27.255 10.4131 29.25C11.1642 29.37 11.4045 28.905 11.4045 28.5V25.965C7.24374 26.865 6.35751 23.955 6.35751 23.955C5.66655 22.215 4.6902 21.75 4.6902 21.75C3.3233 20.82 4.79534 20.85 4.79534 20.85C6.29743 20.955 7.09353 22.395 7.09353 22.395C8.40034 24.675 10.6084 24 11.4646 23.64C11.5998 22.665 11.9903 22.005 12.4109 21.63C9.07628 21.255 5.57643 19.965 5.57643 14.25C5.57643 12.585 6.14722 11.25 7.12357 10.185C6.97337 9.81 6.44764 8.25 7.27378 6.225C7.27378 6.225 8.53553 5.82 11.4045 7.755C12.5912 7.425 13.8829 7.26 15.1597 7.26C16.4365 7.26 17.7283 7.425 18.9149 7.755C21.7839 5.82 23.0457 6.225 23.0457 6.225C23.8718 8.25 23.3461 9.81 23.1959 10.185C24.1722 11.25 24.743 12.585 24.743 14.25C24.743 19.98 21.2281 21.24 17.8785 21.615C18.4192 22.08 18.9149 22.995 18.9149 24.39V28.5C18.9149 28.905 19.1553 29.385 19.9213 29.25C25.8846 27.24 30.1806 21.63 30.1806 15C30.1806 13.0302 29.792 11.0796 29.0372 9.25975C28.2823 7.43987 27.1759 5.78628 25.7811 4.3934C24.3862 3.00052 22.7304 1.89563 20.9079 1.14181C19.0855 0.387987 17.1323 0 15.1597 0Z" fill="#C97800"/>
</svg>
