<svg width="31" height="30" viewBox="0 0 31 30" fill="none" xmlns="http://www.w3.org/2000/svg">
<path d="M16.7039 0.0018455C17.7999 -0.00235462 18.896 0.00864599 19.9918 0.0348439L20.2832 0.0453433C20.6196 0.0573427 20.9516 0.0723419 21.3526 0.090341C22.9507 0.165337 24.0412 0.417324 24.998 0.787805C25.9893 1.16879 26.8244 1.68476 27.6595 2.51872C28.4231 3.26809 29.0141 4.17455 29.3913 5.17508C29.7623 6.13053 30.0147 7.22097 30.0898 8.81689C30.1078 9.21587 30.1228 9.54886 30.1348 9.88484L30.1438 10.1758C30.1705 11.2696 30.182 12.3636 30.1784 13.4577L30.1799 14.5766V16.5415C30.1836 17.636 30.1721 18.7306 30.1453 19.8248L30.1363 20.1158C30.1243 20.4518 30.1093 20.7833 30.0913 21.1838C30.0162 22.7797 29.7608 23.8686 29.3913 24.8241C29.0153 25.8257 28.4242 26.7329 27.6595 27.4819C26.9085 28.2444 26.0003 28.8345 24.998 29.2113C24.0412 29.5818 22.9507 29.8338 21.3526 29.9088C20.9516 29.9268 20.6196 29.9418 20.2832 29.9538L19.9918 29.9628C18.896 29.9895 17.7999 30.001 16.7039 29.9973L15.5834 29.9988H13.6173C12.5212 30.0025 11.4251 29.991 10.3294 29.9643L10.038 29.9553C9.68141 29.9424 9.32493 29.9274 8.96854 29.9103C7.37041 29.8353 6.27995 29.5803 5.32167 29.2113C4.31936 28.8354 3.41148 28.2451 2.66162 27.4819C1.89717 26.7324 1.30565 25.8254 0.928306 24.8241C0.55731 23.8686 0.304973 22.7797 0.229872 21.1838C0.213144 20.8279 0.198124 20.4719 0.184812 20.1158L0.177302 19.8248C0.149611 18.7306 0.137093 17.6361 0.139752 16.5415V13.4577C0.13556 12.3636 0.146576 11.2696 0.172796 10.1758L0.18331 9.88484C0.195326 9.54886 0.210346 9.21587 0.228371 8.81689C0.303471 7.21947 0.555808 6.13203 0.926803 5.17508C1.30437 4.17406 1.89705 3.26785 2.66312 2.52022C3.41247 1.75638 4.31978 1.16515 5.32167 0.787805C6.27995 0.417324 7.36891 0.165337 8.96854 0.090341L10.038 0.0453433L10.3294 0.0378439C11.4246 0.0102045 12.5202 -0.00229616 13.6158 0.000345684L16.7039 0.0018455ZM15.1598 7.50146C14.1647 7.48741 13.1768 7.67099 12.2534 8.04153C11.33 8.41208 10.4895 8.9622 9.7809 9.65993C9.07225 10.3577 8.50953 11.1891 8.12545 12.1059C7.74137 13.0227 7.54358 14.0065 7.54358 15.0003C7.54358 15.9941 7.74137 16.978 8.12545 17.8948C8.50953 18.8116 9.07225 19.643 9.7809 20.3407C10.4895 21.0384 11.33 21.5886 12.2534 21.9591C13.1768 22.3297 14.1647 22.5132 15.1598 22.4992C17.1516 22.4992 19.0618 21.7091 20.4702 20.3026C21.8786 18.8962 22.6698 16.9886 22.6698 14.9996C22.6698 13.0106 21.8786 11.103 20.4702 9.69655C19.0618 8.2901 17.1516 7.50146 15.1598 7.50146ZM15.1598 10.5013C15.7584 10.4903 16.3531 10.5985 16.9093 10.8196C17.4656 11.0407 17.9721 11.3703 18.3993 11.7891C18.8265 12.2078 19.1659 12.7074 19.3976 13.2587C19.6294 13.8099 19.7487 14.4017 19.7488 14.9996C19.7489 15.5974 19.6298 16.1893 19.3982 16.7406C19.1667 17.2919 18.8275 17.7916 18.4004 18.2105C17.9733 18.6294 17.4669 18.9592 16.9107 19.1805C16.3546 19.4018 15.7599 19.5102 15.1613 19.4993C13.9662 19.4993 12.8201 19.0253 11.9751 18.1814C11.13 17.3375 10.6553 16.193 10.6553 14.9996C10.6553 13.8062 11.13 12.6616 11.9751 11.8178C12.8201 10.9739 13.9662 10.4998 15.1613 10.4998L15.1598 10.5013ZM23.0453 5.25158C22.5608 5.27094 22.1025 5.47679 21.7665 5.826C21.4306 6.17522 21.2429 6.64071 21.2429 7.12498C21.2429 7.60925 21.4306 8.07474 21.7665 8.42396C22.1025 8.77317 22.5608 8.97902 23.0453 8.99838C23.5433 8.99838 24.0208 8.80085 24.3729 8.44924C24.7251 8.09762 24.9229 7.62074 24.9229 7.12348C24.9229 6.62622 24.7251 6.14934 24.3729 5.79772C24.0208 5.44611 23.5433 5.24858 23.0453 5.24858V5.25158Z" fill="#C97800"/>
</svg>
