<svg width="22" height="30" viewBox="0 0 22 30" fill="none" xmlns="http://www.w3.org/2000/svg">
<path d="M10.659 14.25C9.66308 14.25 8.70793 13.8549 8.00369 13.1517C7.29945 12.4484 6.90382 11.4946 6.90382 10.5C6.90382 9.50544 7.29945 8.55161 8.00369 7.84835C8.70793 7.14509 9.66308 6.75 10.659 6.75C11.655 6.75 12.6101 7.14509 13.3144 7.84835C14.0186 8.55161 14.4142 9.50544 14.4142 10.5C14.4142 10.9925 14.3171 11.4801 14.1284 11.9351C13.9397 12.39 13.6631 12.8034 13.3144 13.1517C12.9657 13.4999 12.5517 13.7761 12.0961 13.9645C11.6405 14.153 11.1522 14.25 10.659 14.25ZM10.659 0C7.87038 0 5.19596 1.10625 3.22409 3.07538C1.25222 5.04451 0.14444 7.71523 0.14444 10.5C0.14444 18.375 10.659 30 10.659 30C10.659 30 21.1736 18.375 21.1736 10.5C21.1736 7.71523 20.0658 5.04451 18.094 3.07538C16.1221 1.10625 13.4477 0 10.659 0Z" fill="#C97800"/>
</svg>
