<svg width="31" height="24" viewBox="0 0 31 24" fill="none" xmlns="http://www.w3.org/2000/svg">
<path d="M3.14305 24C2.31691 24 1.60943 23.706 1.02061 23.118C0.431794 22.53 0.137887 21.824 0.138888 21V3C0.138888 2.175 0.433296 1.4685 1.02211 0.880502C1.61093 0.292502 2.31791 -0.000997453 3.14305 2.54669e-06H27.1764C28.0025 2.54669e-06 28.71 0.294002 29.2988 0.882002C29.8876 1.47 30.1816 2.176 30.1805 3V21C30.1805 21.825 29.8861 22.5315 29.2973 23.1195C28.7085 23.7075 28.0015 24.001 27.1764 24H3.14305ZM15.1597 13.5L27.1764 6V3L15.1597 10.5L3.14305 3V6L15.1597 13.5Z" fill="#C97800"/>
</svg>
