<svg width="31" height="30" viewBox="0 0 31 30" fill="none" xmlns="http://www.w3.org/2000/svg">
<path d="M15.1597 0C6.86822 0 0.138885 6.72 0.138885 15C0.138885 23.28 6.86822 30 15.1597 30C23.4512 30 30.1806 23.28 30.1806 15C30.1806 6.72 23.4512 0 15.1597 0ZM22.1294 10.2C21.9041 12.57 20.9277 18.33 20.432 20.985C20.2217 22.11 19.8012 22.485 19.4106 22.53C18.5394 22.605 17.8785 21.96 17.0373 21.405C15.7155 20.535 14.9644 19.995 13.6877 19.155C12.2006 18.18 13.1619 17.64 14.0181 16.77C14.2434 16.545 18.0888 13.05 18.1639 12.735C18.1743 12.6873 18.1729 12.6378 18.1598 12.5907C18.1468 12.5437 18.1224 12.5005 18.0888 12.465C17.9987 12.39 17.8785 12.42 17.7733 12.435C17.6382 12.465 15.5352 13.86 11.4346 16.62C10.8337 17.025 10.293 17.235 9.8123 17.22C9.27155 17.205 8.25014 16.92 7.48407 16.665C6.53776 16.365 5.80174 16.2 5.86182 15.675C5.89186 15.405 6.26739 15.135 6.97337 14.85C11.3594 12.945 14.2735 11.685 15.7305 11.085C19.9063 9.345 20.7625 9.045 21.3333 9.045C21.4535 9.045 21.7388 9.075 21.9191 9.225C22.0693 9.345 22.1144 9.51 22.1294 9.63C22.1144 9.72 22.1444 9.99 22.1294 10.2Z" fill="#C97800"/>
</svg>
