<svg width="25" height="20" viewBox="0 0 25 20" fill="none" xmlns="http://www.w3.org/2000/svg">
<path d="M10.1691 11.8529C10.1691 12.0748 10.1069 12.2918 9.99049 12.4763C9.87407 12.6609 9.70859 12.8047 9.51499 12.8896C9.32139 12.9746 9.10835 12.9968 8.90282 12.9535C8.6973 12.9102 8.50851 12.8033 8.36033 12.6464C8.21216 12.4894 8.11125 12.2895 8.07036 12.0718C8.02948 11.8541 8.05046 11.6285 8.13066 11.4234C8.21085 11.2184 8.34665 11.0431 8.52089 10.9198C8.69513 10.7965 8.89997 10.7307 9.10953 10.7307C9.39053 10.7307 9.66002 10.8489 9.85872 11.0593C10.0574 11.2698 10.1691 11.5552 10.1691 11.8529V11.8529ZM15.8905 10.7307C15.6809 10.7307 15.4761 10.7965 15.3018 10.9198C15.1276 11.0431 14.9918 11.2184 14.9116 11.4234C14.8314 11.6285 14.8104 11.8541 14.8513 12.0718C14.8922 12.2895 14.9931 12.4894 15.1413 12.6464C15.2895 12.8033 15.4782 12.9102 15.6838 12.9535C15.8893 12.9968 16.1023 12.9746 16.2959 12.8896C16.4895 12.8047 16.655 12.6609 16.7714 12.4763C16.8879 12.2918 16.95 12.0748 16.95 11.8529C16.95 11.5552 16.8384 11.2698 16.6397 11.0593C16.441 10.8489 16.1715 10.7307 15.8905 10.7307ZM24.4832 16.4539C22.7562 18.0474 20.4252 19.2593 17.7446 19.9551C17.6296 19.9811 17.5126 19.9961 17.395 20C17.119 20.0002 16.8485 19.9183 16.6143 19.7635C16.3801 19.6087 16.1917 19.3874 16.0706 19.1247L15.0005 16.8579C14.1706 16.9615 13.3357 17.014 12.5 17.015C11.6643 17.014 10.8294 16.9615 9.99953 16.8579L8.92941 19.1247C8.80828 19.3874 8.61988 19.6087 8.38572 19.7635C8.15155 19.9183 7.88103 20.0002 7.60501 20C7.48743 19.9961 7.37041 19.9811 7.25536 19.9551C4.57477 19.2593 2.24382 18.0474 0.5168 16.4539C0.299757 16.2564 0.141266 15.9967 0.0604297 15.706C-0.0204062 15.4153 -0.020137 15.106 0.0612049 14.8155L3.66358 2.10098C3.72752 1.8774 3.83774 1.67173 3.9862 1.49895C4.13466 1.32618 4.31763 1.19065 4.5218 1.10223C5.57273 0.641532 6.6616 0.284654 7.77453 0.0361417C8.13191 -0.0467853 8.50564 0.0141461 8.82293 0.207069C9.14022 0.399992 9.37836 0.711093 9.49096 1.07978L10.1796 3.2344C11.7219 3.05481 13.2781 3.05481 14.8204 3.2344L15.509 1.07978C15.6216 0.711093 15.8598 0.399992 16.1771 0.207069C16.4944 0.0141461 16.8681 -0.0467853 17.2255 0.0361417C18.3384 0.284654 19.4273 0.641532 20.4782 1.10223C20.6824 1.19065 20.8653 1.32618 21.0138 1.49895C21.1623 1.67173 21.2725 1.8774 21.3364 2.10098L24.9388 14.8155C25.0201 15.106 25.0204 15.4153 24.9396 15.706C24.8587 15.9967 24.7002 16.2564 24.4832 16.4539V16.4539ZM23.7203 15.197L20.118 2.49375C20.1088 2.46073 20.0925 2.4304 20.0705 2.40511C20.0484 2.37981 20.0212 2.36022 19.9908 2.34786C19.0104 1.92133 17.9964 1.58712 16.9606 1.34911C16.9076 1.34032 16.8534 1.35115 16.8071 1.37977C16.7607 1.40839 16.7252 1.45305 16.7063 1.50622L16.1024 3.43639C16.8708 3.5763 17.6285 3.77507 18.3698 4.03116C18.5128 4.08091 18.6345 4.1828 18.7132 4.31869C18.792 4.45458 18.8226 4.61566 18.7997 4.77324C18.7768 4.93083 18.7019 5.07469 18.5882 5.17924C18.4746 5.28378 18.3296 5.34221 18.179 5.34413L17.9777 5.31046C16.2045 4.72646 14.357 4.43502 12.5 4.44637C10.643 4.43502 8.79551 4.72646 7.02227 5.31046C6.94176 5.34286 6.85588 5.3576 6.76984 5.35378C6.68379 5.34997 6.59937 5.32767 6.52171 5.28825C6.44404 5.24883 6.37475 5.1931 6.31804 5.12446C6.26132 5.05581 6.21837 4.97568 6.19178 4.88892C6.1652 4.80215 6.15553 4.71058 6.16337 4.61974C6.17122 4.5289 6.1964 4.4407 6.23741 4.36049C6.27841 4.28027 6.33438 4.20972 6.40191 4.15311C6.46943 4.09649 6.54712 4.05501 6.63025 4.03116C7.37146 3.77507 8.12924 3.5763 8.89762 3.43639L8.2937 1.50622C8.27484 1.45305 8.23925 1.40839 8.19293 1.37977C8.14661 1.35115 8.09239 1.34032 8.03941 1.34911C7.0036 1.58712 5.9896 1.92133 5.00918 2.34786C4.97884 2.36022 4.95159 2.37981 4.92955 2.40511C4.9075 2.4304 4.89124 2.46073 4.88203 2.49375L1.27966 15.197C1.2679 15.2413 1.26865 15.2883 1.28183 15.3322C1.29501 15.3761 1.32004 15.4149 1.35382 15.4439C2.93251 16.8915 5.07275 18.0025 7.56262 18.6421C7.60772 18.6529 7.6549 18.6478 7.69698 18.6275C7.73907 18.6073 7.77374 18.573 7.79572 18.5299L8.68572 16.6446C7.98998 16.5041 7.30343 16.3167 6.63025 16.0835C6.54712 16.0597 6.46943 16.0182 6.40191 15.9616C6.33438 15.905 6.27841 15.8344 6.23741 15.7542C6.1964 15.674 6.17122 15.5858 6.16337 15.495C6.15553 15.4041 6.1652 15.3125 6.19178 15.2258C6.21837 15.139 6.26132 15.0589 6.31804 14.9902C6.37475 14.9216 6.44404 14.8659 6.52171 14.8264C6.59937 14.787 6.68379 14.7647 6.76984 14.7609C6.85588 14.7571 6.94176 14.7718 7.02227 14.8042C8.79551 15.3882 10.643 15.6797 12.5 15.6683C14.357 15.6797 16.2045 15.3882 17.9777 14.8042C18.0582 14.7718 18.1441 14.7571 18.2302 14.7609C18.3162 14.7647 18.4006 14.787 18.4783 14.8264C18.556 14.8659 18.6252 14.9216 18.682 14.9902C18.7387 15.0589 18.7816 15.139 18.8082 15.2258C18.8348 15.3125 18.8445 15.4041 18.8366 15.495C18.8288 15.5858 18.8036 15.674 18.7626 15.7542C18.7216 15.8344 18.6656 15.905 18.5981 15.9616C18.5306 16.0182 18.4529 16.0597 18.3698 16.0835C17.6966 16.3167 17.01 16.5041 16.3143 16.6446L17.2043 18.5299C17.2263 18.573 17.2609 18.6073 17.303 18.6275C17.3451 18.6478 17.3923 18.6529 17.4374 18.6421C19.9273 18.0025 22.0675 16.8915 23.6462 15.4439C23.68 15.4149 23.705 15.3761 23.7182 15.3322C23.7313 15.2883 23.7321 15.2413 23.7203 15.197V15.197Z" fill="#3888FF"/>
</svg>
