<svg width="25" height="25" viewBox="0 0 25 25" fill="none" xmlns="http://www.w3.org/2000/svg">
<path fill-rule="evenodd" clip-rule="evenodd" d="M12.5 1.13585C6.19271 1.13585 1.08646 6.43685 1.08646 12.965C1.08646 17.7584 3.83958 21.8833 7.80208 23.7387C8.21667 23.9333 8.62188 23.8561 8.93854 23.6083C9.11367 23.466 9.25484 23.2833 9.35098 23.0746C9.44712 22.8658 9.49563 22.6367 9.49271 22.4051V21.7855L8.07917 21.5855C8.0687 21.584 8.05828 21.5822 8.04792 21.5801C7.26875 21.4214 6.74271 21.1355 6.35729 20.7236C6.03333 20.3768 5.83542 19.9616 5.66771 19.6095L5.60938 19.4866C5.45437 19.1493 5.28511 18.8192 5.10208 18.4975C4.96146 18.2649 4.85208 18.1454 4.74375 18.0704C4.46875 17.8801 4.20417 17.5573 4.20417 17.1541C4.20323 17.038 4.22704 16.9232 4.27388 16.8179C4.32073 16.7126 4.38942 16.6195 4.475 16.5454C4.63652 16.4119 4.83781 16.3419 5.04375 16.3476C5.275 16.3476 5.49271 16.4215 5.67396 16.5062C5.85937 16.5932 6.04375 16.7084 6.21562 16.828C6.63437 17.1193 7.04687 17.4638 7.39583 17.8888C7.75937 18.3301 8.01667 18.6106 8.40417 18.6682C8.72292 18.716 9.04792 18.7171 9.30104 18.7051C9.33622 18.496 9.39424 18.2918 9.47396 18.0964C9.1648 18.0212 8.85983 17.9283 8.56042 17.8182C7.87917 17.566 7.11979 17.1736 6.60937 16.5791C6.04896 15.9247 5.70208 15.3411 5.50833 14.6585C5.31979 13.9932 5.28854 13.2726 5.28854 12.3857C5.28854 11.027 5.85208 9.88244 6.275 9.27485C6.11251 8.7429 5.99573 8.19691 5.92604 7.64335C5.87988 7.29426 5.88024 6.94019 5.92708 6.5912C5.97917 6.27272 6.10937 5.88142 6.45208 5.64556C6.78229 5.41621 7.16979 5.426 7.47187 5.48469C7.78542 5.54665 8.11146 5.68251 8.41146 5.83795C8.9 6.09012 9.38542 6.42707 9.74896 6.71293C10.376 6.52054 11.4854 6.27272 12.4885 6.2499H12.5115C13.5156 6.27272 14.575 6.52054 15.1865 6.71185C15.551 6.42707 16.0354 6.08903 16.5229 5.83795C16.8229 5.68251 17.1479 5.54665 17.4625 5.48469C17.7646 5.426 18.1521 5.41621 18.4833 5.64447C18.825 5.88142 18.9562 6.27272 19.0073 6.5912C19.0604 6.92271 19.0479 7.29336 19.0073 7.64335C18.9379 8.19687 18.8215 8.74285 18.6594 9.27485C19.0823 9.88353 19.6458 11.0281 19.6458 12.3857C19.6458 13.2726 19.6146 13.9932 19.4271 14.6574C19.2323 15.3421 18.8854 15.9247 18.325 16.5791C17.8146 17.1736 17.0552 17.566 16.374 17.8182C16.0123 17.9508 15.6428 18.0586 15.2677 18.141C15.3958 18.5453 15.4417 18.8725 15.4417 19.0606V22.4192C15.4417 22.9301 15.6698 23.3659 15.9937 23.6203C16.3083 23.8692 16.7125 23.9463 17.1271 23.7572C21.1271 21.9181 23.9125 17.7823 23.9125 12.9639C23.9125 6.43685 18.8083 1.13585 12.5 1.13585ZM9.87083 19.7931C9.6 19.8334 9.86979 19.7931 9.86979 19.7931H9.86667L9.85833 19.7953L9.82813 19.7997C9.6734 19.8186 9.5181 19.8321 9.3625 19.8399C9.06875 19.854 8.66562 19.8551 8.25208 19.7931C7.42812 19.6714 6.92708 19.0627 6.60312 18.6671L6.57187 18.6301C6.46596 18.5019 6.35217 18.381 6.23125 18.2682C6.33854 18.4747 6.45 18.7051 6.56979 18.9529L6.58021 18.9747L6.63333 19.0877C6.81562 19.466 6.93542 19.7182 7.13437 19.929C7.32812 20.1355 7.63021 20.3355 8.24062 20.4616L10.1094 20.7257C10.2399 20.7442 10.3596 20.8114 10.4462 20.915C10.5328 21.0185 10.5804 21.1513 10.5802 21.2888V22.4051C10.5802 23.2746 10.1896 24.0496 9.59062 24.5192C9.27616 24.7699 8.90206 24.9263 8.50868 24.9715C8.1153 25.0167 7.71755 24.949 7.35833 24.7757C3.02292 22.7464 0 18.228 0 12.965C0 5.7999 5.60104 0 12.5 0C19.399 0 25 5.7999 25 12.965C25 18.2551 21.9385 22.7855 17.5656 24.7974C17.2061 24.9674 16.8091 25.0323 16.417 24.985C16.0249 24.9377 15.6524 24.7801 15.3396 24.5289C15.0302 24.2804 14.7803 23.9605 14.6093 23.5943C14.4383 23.2281 14.351 22.8255 14.3542 22.4181V19.0595C14.3542 18.9834 14.3031 18.5443 14.0187 17.954C13.9795 17.8722 13.9597 17.7817 13.9611 17.6902C13.9625 17.5987 13.985 17.5089 14.0267 17.4284C14.0684 17.3479 14.128 17.279 14.2006 17.2277C14.2732 17.1763 14.3566 17.144 14.4437 17.1334C14.801 17.0921 15.4031 16.9715 16.0104 16.7465C16.6292 16.5182 17.1844 16.2052 17.5146 15.8204C18.0052 15.2487 18.25 14.8095 18.3844 14.3345C18.524 13.8422 18.5594 13.2693 18.5594 12.3857C18.5594 11.1455 17.9344 10.1031 17.6469 9.76723C17.5816 9.69132 17.5371 9.5985 17.5181 9.49848C17.499 9.39847 17.5061 9.29494 17.5385 9.19876C17.6844 8.77051 17.8615 8.10421 17.9292 7.50966C17.9625 7.21075 17.9646 6.96075 17.9354 6.78032C17.9289 6.71435 17.9098 6.65042 17.8792 6.59228C17.8075 6.57933 17.7339 6.58267 17.6635 6.60206C17.4865 6.63685 17.2604 6.7238 17.0042 6.85641C16.4937 7.11945 15.9625 7.50857 15.6333 7.78683C15.5607 7.84828 15.4741 7.88909 15.382 7.90528C15.2898 7.92147 15.1952 7.91249 15.1073 7.87922C14.2639 7.59134 13.3866 7.42566 12.5 7.38683C11.451 7.41292 10.2406 7.72379 9.82708 7.87922C9.73921 7.91249 9.64459 7.92147 9.55241 7.90528C9.46023 7.88909 9.37363 7.84828 9.30104 7.78683C8.87535 7.42922 8.41607 7.11749 7.93021 6.85641C7.72158 6.74209 7.49957 6.65659 7.26979 6.60206C7.19976 6.58283 7.12658 6.57949 7.05521 6.59228C7.02459 6.6504 7.00546 6.71435 6.99896 6.78032C6.96979 6.96075 6.97187 7.21075 7.00521 7.50966C7.07292 8.10421 7.25104 8.77051 7.39583 9.19876C7.46146 9.39441 7.42083 9.6118 7.2875 9.76723C7 10.1031 6.375 11.1455 6.375 12.3857C6.375 13.2683 6.41042 13.8422 6.55 14.3345C6.68542 14.8095 6.92917 15.2476 7.41875 15.8204C7.75 16.2052 8.30417 16.5182 8.92396 16.7465C9.43101 16.9337 9.95591 17.0634 10.4896 17.1334C10.5994 17.1457 10.703 17.1926 10.7866 17.2678C10.8703 17.3431 10.93 17.4431 10.9578 17.5546C10.9856 17.6661 10.9802 17.7838 10.9424 17.8921C10.9045 18.0003 10.8359 18.094 10.7458 18.1606C10.574 18.2888 10.4604 18.5193 10.3969 18.7856C10.3641 18.9227 10.3445 19.0629 10.3385 19.204V19.2247C10.3399 19.3625 10.2932 19.4961 10.2071 19.6007C10.1211 19.7053 10.0016 19.7737 9.87083 19.7931V19.7931Z" fill="#3888FF"/>
</svg>
