<svg width="18" height="25" viewBox="0 0 18 25" fill="none" xmlns="http://www.w3.org/2000/svg">
<path fill-rule="evenodd" clip-rule="evenodd" d="M15.3392 2.376C13.6674 0.88184 11.4091 0.0294009 9.04467 0H8.95513C6.59051 0.0289737 4.33185 0.88113 2.65966 2.37519C0.987458 3.86924 0.0336965 5.88728 0.00126811 8C-0.0278319 9.5 0.444484 10.974 1.35778 12.234L8.40447 25H9.59757L16.642 12.234C17.5576 10.974 18.0299 9.5 17.9985 8C17.9656 5.88745 17.0115 3.86972 15.3392 2.376V2.376ZM8.83202 2L9.01557 2.02L9.18122 2C10.9397 2.06843 12.602 2.73613 13.8265 3.86586C15.0509 4.99558 15.7445 6.50148 15.7645 8.074C15.7817 9.19006 15.417 10.2842 14.7192 11.21L14.6744 11.278L14.6364 11.348L8.9999 21.558L3.36568 11.358L3.32763 11.28L3.28286 11.212C2.58509 10.2862 2.22037 9.19206 2.2375 8.076C2.25658 6.50166 2.95095 4.99386 4.17747 3.8634C5.40398 2.73294 7.06917 2.06598 8.82978 2H8.83202ZM10.202 6.338C9.95753 6.19197 9.6833 6.09038 9.39494 6.03904C9.10657 5.9877 8.80971 5.98761 8.5213 6.03878C8.23289 6.08994 7.95859 6.19136 7.71405 6.33724C7.46951 6.48312 7.25953 6.67061 7.09609 6.889C6.93264 7.10739 6.81895 7.3524 6.76148 7.61005C6.70402 7.8677 6.70392 8.13293 6.76119 8.39062C6.81845 8.6483 6.93196 8.89338 7.09524 9.11187C7.25851 9.33036 7.46836 9.51797 7.71278 9.664C8.20643 9.95892 8.81098 10.0666 9.39344 9.96322C9.97591 9.85989 10.4886 9.55405 10.8187 9.113C11.1487 8.67194 11.2692 8.1318 11.1536 7.61138C11.0379 7.09097 10.6956 6.63292 10.202 6.338V6.338ZM6.47043 4.674C6.95885 4.36724 7.511 4.15087 8.09441 4.03761C8.67781 3.92434 9.28067 3.91648 9.86752 4.01448C10.4544 4.11248 11.0134 4.31436 11.5116 4.60824C12.0098 4.90213 12.4372 5.28208 12.7687 5.72575C13.1001 6.16941 13.3289 6.66782 13.4415 7.19165C13.5542 7.71549 13.5484 8.25416 13.4246 8.77598C13.3008 9.29779 13.0614 9.79221 12.7206 10.2301C12.3797 10.6681 11.9442 11.0407 11.4398 11.326C10.4524 11.8845 9.25976 12.076 8.11653 11.8594C6.9733 11.6429 5.97015 11.0355 5.32137 10.167C4.67258 9.29858 4.42959 8.23788 4.64429 7.21151C4.859 6.18514 5.51437 5.27446 6.47043 4.674V4.674Z" fill="#3888FF"/>
</svg>
