<svg width="25" height="25" viewBox="0 0 25 25" fill="none" xmlns="http://www.w3.org/2000/svg">
<path d="M23.1492 0.00255973C22.8405 0.0275672 22.5374 0.108206 22.2519 0.24133H22.248C21.9739 0.362321 20.6707 0.972632 18.6895 1.89773L11.5898 5.2266C6.49537 7.61431 1.48749 9.96561 1.48749 9.96561L1.54712 9.93991C1.54712 9.93991 1.20184 10.0663 0.841184 10.3414C0.618371 10.4993 0.42664 10.7058 0.277593 10.9485C0.100629 11.2376 -0.0417111 11.6798 0.0111857 12.137C0.097744 12.9101 0.547847 13.3737 0.870998 13.6296C1.198 13.8887 1.50961 14.0097 1.50961 14.0097H1.5173L6.21357 15.7711C6.4242 16.5238 7.64467 20.9908 7.93801 22.0198C8.11112 22.6344 8.27943 23.0188 8.49006 23.3121C8.592 23.462 8.71126 23.5873 8.85456 23.688C8.92906 23.7362 9.00849 23.7743 9.09116 23.8015L9.04307 23.7886C9.05749 23.7929 9.06904 23.8057 9.07962 23.81C9.11809 23.8218 9.14405 23.8261 9.1931 23.8346C9.93654 24.0852 10.5338 23.5712 10.5338 23.5712L10.5675 23.5413L13.3402 20.7306L17.9874 24.6998L18.0932 24.7501C19.0617 25.2234 20.0427 24.96 20.5611 24.4953C21.0833 24.0274 21.2863 23.4288 21.2863 23.4288L21.3199 23.3325L24.9111 2.85067C25.0131 2.34529 25.0391 1.87204 24.9265 1.4127C24.8105 0.947818 24.5426 0.547992 24.1754 0.291654C23.8671 0.0829867 23.5096 -0.017732 23.1492 0.00255973V0.00255973ZM23.0521 2.19754C23.0482 2.26499 23.0597 2.2575 23.0328 2.38705V2.39883L19.4753 22.6676C19.4599 22.6965 19.4339 22.7596 19.3627 22.8228C19.2877 22.8892 19.2281 22.931 18.9155 22.7928L13.2315 17.9414L9.79805 21.4255L10.5194 16.2968L19.8061 6.6603C20.1889 6.26413 20.061 6.18061 20.061 6.18061C20.0879 5.69451 19.483 6.03821 19.483 6.03821L7.77258 14.1146L7.76874 14.0932L2.15591 11.9893V11.985L2.14148 11.9818C2.15132 11.9781 2.16096 11.9738 2.17034 11.9689L2.20111 11.9518L2.23093 11.94C2.23093 11.94 7.24265 9.58871 12.3371 7.20101C14.8877 6.00501 17.4575 4.80046 19.4339 3.87107C21.4103 2.94704 22.8712 2.26927 22.954 2.23287C23.0328 2.19861 22.9953 2.19861 23.0521 2.19861V2.19754Z" fill="#3888FF"/>
</svg>
